<svg width="24" height="24" viewBox="0 0 24 24" fill="none" xmlns="http://www.w3.org/2000/svg">
<path fill-rule="evenodd" clip-rule="evenodd" d="M12 3C9.79086 3 8 4.79086 8 7V10H16V7C16 4.79086 14.2091 3 12 3ZM6 7V10H5C3.34315 10 2 11.3431 2 13V20C2 21.6569 3.34315 23 5 23H19C20.6569 23 22 21.6569 22 20V13C22 11.3431 20.6569 10 19 10H18V7C18 3.68629 15.3137 1 12 1C8.68629 1 6 3.68629 6 7ZM12 18.5C13.1046 18.5 14 17.6046 14 16.5C14 15.3954 13.1046 14.5 12 14.5C10.8954 14.5 10 15.3954 10 16.5C10 17.6046 10.8954 18.5 12 18.5Z" fill="black"/>
</svg>
