<svg width="16" height="16" viewBox="0 0 16 16" fill="none" xmlns="http://www.w3.org/2000/svg">
<path fill-rule="evenodd" clip-rule="evenodd" d="M8 16C12.4183 16 16 12.4183 16 8C16 3.58172 12.4183 0 8 0C3.58172 0 0 3.58172 0 8C0 12.4183 3.58172 16 8 16ZM6.05171 4.50961C6.0028 4.5032 5.94246 4.5 5.87072 4.5H5V11.5H6.45772V7.74777C6.45772 7.64528 6.45446 7.53638 6.44794 7.42107C6.44142 7.30256 6.43326 7.18245 6.42348 7.06074L9.78407 11.231C9.86559 11.3334 9.95039 11.4039 10.0384 11.4423C10.1265 11.4808 10.2341 11.5 10.3613 11.5H11.2222V4.5H9.7645V8.20419C9.7645 8.31629 9.76776 8.4364 9.77428 8.56452C9.78081 8.68943 9.79059 8.81915 9.80363 8.95367L6.41859 4.74983C6.37293 4.69538 6.33217 4.65214 6.2963 4.62011C6.26042 4.58808 6.22292 4.56406 6.18379 4.54804C6.14465 4.52883 6.10063 4.51601 6.05171 4.50961Z" fill="#F86D7D"/>
</svg>
