<svg width="130" height="38" viewBox="0 0 130 38" fill="none" xmlns="http://www.w3.org/2000/svg">
<path d="M21.04 0.200002H17.04V36.2H21.04V14.96H25.8V37H29.84V0H25.8V11.6H21.04V0.200002ZM4.04 2.72H0V23.24C0 23.64 0.16 24 0.36 24.28C0.72 24.72 1.6 25.56 2 25.88C2.28 26.08 2.64 26.2 2.96 26.2H7.96C10.4 26.2 13.08 25.88 15.04 25.48L14.6 22.24C12.64 22.6 10.16 22.84 8.04 22.84H4.88C4.4 22.84 4.04 22.52 4.04 22V2.72Z" fill="#1B1C32"/>
<path d="M62.6463 0H58.5662V19.2H62.6463V0ZM37.5662 9.76C37.5662 6.28 40.1263 4.24 43.5263 4.24C46.9263 4.24 49.4863 6.28 49.4863 9.76C49.4863 13.24 46.9263 15.28 43.5263 15.28C40.1263 15.28 37.5662 13.24 37.5662 9.76ZM33.5263 9.76C33.5263 15.04 37.7663 18.64 43.5263 18.64C49.2863 18.64 53.5263 15.04 53.5263 9.76C53.5263 4.48 49.2863 0.880001 43.5263 0.880001C37.7663 0.880001 33.5263 4.48 33.5263 9.76ZM63.6463 34.24H44.5263C44.0463 34.24 43.6863 33.96 43.6863 33.48V30.88H62.6463V21.2H39.6463V24.56H58.5662V27.6H39.6063V34.64C39.6063 35.04 39.7663 35.4 39.9663 35.68C40.3263 36.12 41.2063 36.96 41.6063 37.28C41.8862 37.48 42.2463 37.6 42.5662 37.6H63.6463V34.24Z" fill="#1B1C32"/>
<path d="M96.6525 0H92.5725V37H96.6525V0ZM84.0125 11.16C84.0125 15.04 81.6525 17.56 77.9725 17.56C74.2925 17.56 71.9325 15.04 71.9325 11.16C71.9325 7.28 74.2925 4.84 77.9725 4.84C81.6525 4.84 84.0125 7.28 84.0125 11.16ZM88.0925 11.16C88.0925 5.56 84.0525 1.48 77.9725 1.48C71.8925 1.48 67.8525 5.56 67.8525 11.16C67.8525 16.76 71.8925 20.92 77.9725 20.92C84.0525 20.92 88.0925 16.76 88.0925 11.16ZM90.4525 26.04C87.8525 26.4 84.3325 26.64 81.0125 26.64H65.8125V30H80.9325C84.1725 30 88.4125 29.68 90.8125 29.28L90.4525 26.04Z" fill="#1B1C32"/>
<path d="M129.859 37.36V22.08H125.779V26.4H110.899V22.08H106.819V34.4C106.819 34.8 106.979 35.16 107.179 35.44C107.539 35.88 108.419 36.72 108.819 37.04C109.099 37.24 109.459 37.36 109.779 37.36H129.859ZM101.139 5.4H109.099V7.88C109.099 8.88 108.859 9.88 108.179 10.68C106.339 12.76 102.939 15.32 99.5787 17.64L102.099 20.56C105.379 18.24 108.779 15.48 111.339 12.84C113.899 15.2 117.019 17.4 120.099 19.36L122.299 16.48C119.219 14.48 116.019 12.16 114.339 10.4C113.659 9.72 113.419 8.88 113.419 7.88V5.4H120.819V2.04H101.139V5.4ZM129.859 0H125.779V19.88H129.859V0ZM125.779 34H111.739C111.259 34 110.899 33.68 110.899 33.16V29.76H125.779V34Z" fill="#1B1C32"/>
</svg>
