<svg width="24" height="24" viewBox="0 0 24 24" fill="none" xmlns="http://www.w3.org/2000/svg">
<path fill-rule="evenodd" clip-rule="evenodd" d="M10.5 2C5.80558 2 2 5.80558 2 10.5C2 15.1944 5.80558 19 10.5 19C12.4869 19 14.3145 18.3183 15.7618 17.176L20.2929 21.7071C20.6834 22.0976 21.3166 22.0976 21.7071 21.7071C22.0976 21.3166 22.0976 20.6834 21.7071 20.2929L17.176 15.7618C18.3183 14.3145 19 12.4869 19 10.5C19 5.80558 15.1944 2 10.5 2ZM15.1598 15.0317C16.2986 13.8609 17 12.2623 17 10.5C17 6.91015 14.0899 4 10.5 4C6.91015 4 4 6.91015 4 10.5C4 14.0899 6.91015 17 10.5 17C12.2623 17 13.8609 16.2986 15.0317 15.1598C15.0509 15.1368 15.0713 15.1145 15.0929 15.0929C15.1145 15.0713 15.1368 15.0509 15.1598 15.0317Z" fill="black"/>
</svg>
