<svg width="24" height="24" viewBox="0 0 24 24" fill="none" xmlns="http://www.w3.org/2000/svg">
<path fill-rule="evenodd" clip-rule="evenodd" d="M6 9C6 5.68629 8.68629 3 12 3C15.3137 3 18 5.68629 18 9V14C18 14.7286 18.1948 15.4117 18.5351 16H5.46487C5.80521 15.4117 6 14.7286 6 14V9ZM20 14C20 15.1046 20.8954 16 22 16C22.5523 16 23 16.4477 23 17C23 17.5523 22.5523 18 22 18H2C1.44772 18 1 17.5523 1 17C1 16.4477 1.44772 16 2 16C3.10457 16 4 15.1046 4 14V9C4 4.58172 7.58172 1 12 1C16.4183 1 20 4.58172 20 9V14ZM10.27 20C9.91237 20 9.58196 20.191 9.40346 20.5009C9.22496 20.8108 9.22555 21.1924 9.405 21.5018C9.9417 22.427 10.9304 22.9965 12 22.9965C13.0696 22.9965 14.0583 22.427 14.595 21.5018C14.7744 21.1924 14.775 20.8108 14.5965 20.5009C14.418 20.191 14.0876 20 13.73 20H10.27Z" fill="black"/>
</svg>
