<svg width="24" height="24" viewBox="0 0 24 24" fill="none" xmlns="http://www.w3.org/2000/svg">
<path fill-rule="evenodd" clip-rule="evenodd" d="M1.91667 1C1.41041 1 1 1.41041 1 1.91667C1 2.17866 1.10991 2.41498 1.28613 2.58203C1.45044 2.73779 1.6724 2.83333 1.91667 2.83333H3.97835C4.43777 2.83431 4.82564 3.176 4.88538 3.63158L6.27871 14.1916C6.45945 15.5675 7.63697 16.593 9.0243 16.5833H18.7021C20.0294 16.6042 21.1828 15.6734 21.4422 14.3707L21.4424 14.3694L22.9822 6.67998C23.0361 6.41066 22.9664 6.13135 22.7923 5.91892C22.6182 5.7065 22.358 5.58333 22.0833 5.58333H6.99212L6.703 3.39212C6.52357 2.025 5.35943 1.00209 3.98055 1H1.91667ZM8.09629 13.9518L7.23402 7.41667H20.9649L19.6445 14.0109L19.6442 14.0123C19.5577 14.4478 19.1715 14.7587 18.7276 14.7502L18.71 14.75L9.02083 14.75L9.01306 14.75C8.5499 14.754 8.15649 14.411 8.09629 13.9518ZM5.58335 20.25C5.58335 18.7312 6.81457 17.5 8.33335 17.5C9.85214 17.5 11.0834 18.7312 11.0834 20.25C11.0834 21.7688 9.85214 23 8.33335 23C6.81457 23 5.58335 21.7688 5.58335 20.25ZM8.33335 19.3333C7.82709 19.3333 7.41669 19.7437 7.41669 20.25C7.41669 20.7563 7.82709 21.1667 8.33335 21.1667C8.83961 21.1667 9.25002 20.7563 9.25002 20.25C9.25002 19.7437 8.83961 19.3333 8.33335 19.3333ZM16.5834 20.25C16.5834 18.7312 17.8146 17.5 19.3334 17.5C20.8521 17.5 22.0834 18.7312 22.0834 20.25C22.0834 21.7688 20.8521 23 19.3334 23C17.8146 23 16.5834 21.7688 16.5834 20.25ZM19.3334 19.3333C18.8271 19.3333 18.4167 19.7437 18.4167 20.25C18.4167 20.7563 18.8271 21.1667 19.3334 21.1667C19.8396 21.1667 20.25 20.7563 20.25 20.25C20.25 19.7437 19.8396 19.3333 19.3334 19.3333Z" fill="black"/>
</svg>
